# xmcd
#
# Track frame offsets: 
#        150
#        27946
#        47247
#        66075
#        88350
#        107400
#        136837
#        158645
#        179994
#        201226
#        224184
#        250971
#
# Disc length: 3487 seconds
#
# Revision: 0
# Processed by: cddbd v1.5.2PL0 Copyright (c) Steve Scherf et al.
# Submitted via: ExactAudioCopy v1.0b3
#
DISCID=b90d9d0c
DTITLE=Rade Serbedzija i Zapadni Kolodvor Band - Live 2013
DYEAR=2014
DGENRE=Pop
TTITLE0=Imam Pjesmu Za Tebe
TTITLE1=Barbara
TTITLE2=Kose Boje Maka
TTITLE3=Panonske Tresnje
TTITLE4=Uputa Mladom Glumcu
TTITLE5=Gubmelijum Roza
TTITLE6=Povratak Ratnika
TTITLE7=Sjecanje Na Jesenjina
TTITLE8=Csardas
TTITLE9=Namesto Koga Roza Cveti
TTITLE10=Pirav Mange Korkoro
TTITLE11=Ne Marim Da Pijem
EXTD=
EXTT0=
EXTT1=
EXTT2=
EXTT3=
EXTT4=
EXTT5=
EXTT6=
EXTT7=
EXTT8=
EXTT9=
EXTT10=
EXTT11=
PLAYORDER=
